<svg xmlns="http://www.w3.org/2000/svg" xmlns:xlink="http://www.w3.org/1999/xlink" preserveAspectRatio="xMidYMid" width="28" height="20" viewBox="0 0 28 20">
  <defs>
    <style>

      .cls-2 {
        fill: #ffffff;
      }
    </style>
  </defs>
  <path d="M18.705,8.869 C18.705,8.869 27.995,1.000 27.995,1.000 C27.995,1.000 27.995,19.953 27.995,19.953 C27.995,19.953 18.705,8.869 18.705,8.869 ZM0.110,0.000 C0.110,0.000 27.926,0.000 27.926,0.000 C27.926,0.000 14.018,11.698 14.018,11.698 C14.018,11.698 0.110,0.000 0.110,0.000 ZM0.004,19.953 C0.004,19.953 0.004,1.000 0.004,1.000 C0.004,1.000 9.295,8.869 9.295,8.869 C9.295,8.869 0.004,19.953 0.004,19.953 ZM14.015,12.843 C14.015,12.843 18.094,9.395 18.094,9.395 C18.094,9.395 26.957,19.963 26.957,19.963 C26.957,19.963 1.080,19.963 1.080,19.963 C1.080,19.963 9.942,9.500 9.942,9.500 C9.942,9.500 14.015,12.843 14.015,12.843 Z" id="path-1" class="cls-2" fill-rule="evenodd"/>
</svg>
